<?xml version="1.0" standalone="no"?>
<!DOCTYPE svg PUBLIC "-//W3C//DTD SVG 20010904//EN"
 "http://www.w3.org/TR/2001/REC-SVG-20010904/DTD/svg10.dtd">
<svg version="1.0" xmlns="http://www.w3.org/2000/svg"
 width="1024.000000pt" height="1024.000000pt" viewBox="0 0 1024.000000 1024.000000"
 preserveAspectRatio="xMidYMid meet">
<metadata>
Created by potrace 1.11, written by Peter Selinger 2001-2013
</metadata>
<g transform="translate(0.000000,1024.000000) scale(0.100000,-0.100000)"
fill="#000000" stroke="none">
<path d="M7010 10136 c-47 -12 -120 -52 -120 -65 0 -11 -197 -203 -280 -273
-248 -208 -637 -467 -1001 -666 -42 -23 -78 -40 -80 -38 -7 7 -300 65 -364 72
-33 3 -63 8 -66 10 -4 2 -10 20 -14 40 -25 135 -146 407 -200 452 -94 77 -217
59 -300 -45 -68 -84 -217 -223 -417 -386 -113 -91 -135 -105 -185 -116 -32 -7
-110 -28 -173 -47 -367 -112 -743 -317 -1039 -568 -99 -83 -302 -285 -357
-356 -24 -31 -52 -54 -74 -61 -66 -22 -211 -98 -296 -155 -134 -88 -178 -160
-177 -289 1 -67 -3 -88 -26 -135 -15 -30 -38 -82 -51 -115 -13 -33 -24 -61
-26 -63 -3 -5 -49 -10 -154 -17 -52 -3 -125 -10 -163 -15 -37 -6 -89 -12 -115
-16 -96 -11 -429 -100 -386 -103 6 -1 31 6 55 15 60 21 308 71 394 79 39 3 84
8 100 10 82 11 255 16 255 7 0 -5 -8 -33 -18 -63 -11 -30 -29 -96 -42 -147
l-23 -92 -116 -37 c-149 -46 -299 -107 -431 -173 -104 -52 -240 -129 -240
-136 0 -2 64 30 143 71 148 77 325 151 487 203 139 44 153 47 146 25 -4 -16
-18 -90 -30 -168 -12 -74 -26 -194 -28 -239 -2 -48 -3 -49 -147 -195 -80 -80
-161 -168 -180 -196 l-33 -50 52 60 c64 73 258 263 282 276 16 9 18 -2 18
-148 0 -87 2 -178 5 -203 52 -508 187 -871 459 -1235 77 -102 296 -322 406
-407 238 -183 554 -353 860 -460 47 -16 89 -33 93 -38 5 -4 -20 -77 -56 -161
-114 -268 -188 -499 -233 -719 -24 -114 -26 -346 -5 -451 l17 -86 -33 -23
c-55 -37 -149 -145 -187 -212 -59 -107 -80 -188 -80 -308 1 -189 58 -366 234
-720 71 -144 134 -292 145 -341 12 -52 6 -114 -15 -161 -27 -60 -26 -134 4
-190 l24 -45 -192 3 c-105 1 -524 5 -931 8 -407 3 -1047 9 -1423 12 l-682 7 0
-102 0 -101 73 -1 c374 -5 1679 -16 2780 -25 l728 -6 39 -38 c21 -21 63 -49
92 -64 49 -23 202 -69 273 -80 17 -3 59 -10 95 -16 36 -6 137 -13 225 -15 247
-5 434 23 675 102 l105 34 70 -25 c91 -33 285 -82 355 -91 169 -20 229 -23
368 -20 83 2 155 6 160 8 4 3 37 8 73 11 89 9 276 59 337 90 28 14 72 48 98
76 l49 50 1823 0 1822 0 0 100 0 100 -1641 0 c-1559 0 -1641 1 -1634 18 41 96
42 136 4 220 -39 84 -8 193 136 482 130 260 182 391 216 542 37 169 17 342
-55 473 l-34 62 24 46 c30 61 62 118 110 196 22 35 44 71 49 80 82 134 235
313 346 402 176 143 412 208 859 234 409 24 570 62 728 173 130 91 231 273
248 447 23 234 -181 427 -540 510 -102 24 -174 30 -351 30 -186 0 -290 -8
-395 -30 -540 -113 -960 -336 -1357 -719 -71 -68 -83 -76 -89 -60 -23 65 -111
278 -159 389 -31 72 -59 135 -61 141 -3 6 34 42 83 80 115 90 342 316 425 424
228 297 396 617 511 976 41 126 93 326 102 394 4 25 11 68 16 95 11 57 10 386
-2 520 -20 226 -19 217 -45 350 -74 380 -218 721 -421 995 l-52 71 24 127 c13
70 40 195 60 277 109 453 130 626 106 875 -31 316 -121 641 -197 712 -67 62
-159 86 -244 64z"/>
<path d="M825 7140 c-3 -6 1 -7 9 -4 18 7 21 14 7 14 -6 0 -13 -4 -16 -10z"/>
<path d="M850 6630 c-8 -5 -12 -12 -9 -15 4 -3 12 1 19 10 14 17 11 19 -10 5z"/>
<path d="M800 6600 c-8 -5 -10 -10 -5 -10 6 0 17 5 25 10 8 5 11 10 5 10 -5 0
-17 -5 -25 -10z"/>
<path d="M1223 6078 c-15 -20 -25 -38 -20 -38 3 0 12 11 21 25 17 26 16 35 -1
13z"/>
</g>
</svg>
